<mxfile host="app.diagrams.net" agent="Mozilla/5.0 (Windows NT 10.0; Win64; x64) AppleWebKit/537.36 (KHTML, like Gecko) Chrome/136.0.0.0 Safari/537.36" version="26.2.14">
  <diagram name="Page-1" id="LzsLGUlDfUyUdIU7W2HB">
    <mxGraphModel dx="1042" dy="562" grid="0" gridSize="10" guides="1" tooltips="1" connect="1" arrows="1" fold="1" page="1" pageScale="1" pageWidth="850" pageHeight="1100" math="0" shadow="0">
      <root>
        <mxCell id="0" />
        <mxCell id="1" parent="0" />
        <mxCell id="1Ba7Y8OGBQMB3d605TR8-55" style="edgeStyle=orthogonalEdgeStyle;rounded=0;orthogonalLoop=1;jettySize=auto;html=1;exitX=1;exitY=0.5;exitDx=0;exitDy=0;entryX=1;entryY=0.5;entryDx=0;entryDy=0;" edge="1" parent="1" source="1Ba7Y8OGBQMB3d605TR8-2" target="1Ba7Y8OGBQMB3d605TR8-6">
          <mxGeometry relative="1" as="geometry" />
        </mxCell>
        <mxCell id="1Ba7Y8OGBQMB3d605TR8-2" value="" style="rounded=1;whiteSpace=wrap;html=1;fillColor=#FFFF00;" vertex="1" parent="1">
          <mxGeometry x="372.5" y="52" width="130" height="40" as="geometry" />
        </mxCell>
        <mxCell id="1Ba7Y8OGBQMB3d605TR8-3" value="" style="rounded=1;whiteSpace=wrap;html=1;fillColor=#1CFFFD;" vertex="1" parent="1">
          <mxGeometry x="372.5" y="127" width="130" height="40" as="geometry" />
        </mxCell>
        <mxCell id="1Ba7Y8OGBQMB3d605TR8-4" value="" style="rounded=1;whiteSpace=wrap;html=1;fillColor=#FF1C2D;" vertex="1" parent="1">
          <mxGeometry x="372.5" y="212" width="130" height="40" as="geometry" />
        </mxCell>
        <mxCell id="1Ba7Y8OGBQMB3d605TR8-5" value="" style="rounded=1;whiteSpace=wrap;html=1;fillColor=#FF3399;" vertex="1" parent="1">
          <mxGeometry x="372.5" y="282" width="130" height="40" as="geometry" />
        </mxCell>
        <mxCell id="1Ba7Y8OGBQMB3d605TR8-6" value="" style="rounded=1;whiteSpace=wrap;html=1;fillColor=#FF9933;" vertex="1" parent="1">
          <mxGeometry x="372.5" y="422" width="130" height="40" as="geometry" />
        </mxCell>
        <mxCell id="1Ba7Y8OGBQMB3d605TR8-7" value="" style="rounded=1;whiteSpace=wrap;html=1;fillColor=#7EA6E0;" vertex="1" parent="1">
          <mxGeometry x="375" y="492" width="130" height="40" as="geometry" />
        </mxCell>
        <mxCell id="1Ba7Y8OGBQMB3d605TR8-8" value="" style="rounded=1;whiteSpace=wrap;html=1;fillColor=#B266FF;" vertex="1" parent="1">
          <mxGeometry x="372.5" y="352" width="130" height="40" as="geometry" />
        </mxCell>
        <mxCell id="1Ba7Y8OGBQMB3d605TR8-12" value="" style="rounded=1;whiteSpace=wrap;html=1;direction=south;" vertex="1" parent="1">
          <mxGeometry x="140" y="212" width="60" height="100" as="geometry" />
        </mxCell>
        <mxCell id="1Ba7Y8OGBQMB3d605TR8-13" value="Actor" style="shape=umlActor;verticalLabelPosition=bottom;verticalAlign=top;html=1;outlineConnect=0;" vertex="1" parent="1">
          <mxGeometry x="155" y="232" width="30" height="60" as="geometry" />
        </mxCell>
        <mxCell id="1Ba7Y8OGBQMB3d605TR8-23" value="" style="endArrow=classic;html=1;rounded=0;exitX=0;exitY=0.5;exitDx=0;exitDy=0;entryX=0;entryY=0.5;entryDx=0;entryDy=0;" edge="1" parent="1" source="1Ba7Y8OGBQMB3d605TR8-12" target="1Ba7Y8OGBQMB3d605TR8-2">
          <mxGeometry width="50" height="50" relative="1" as="geometry">
            <mxPoint x="530" y="232" as="sourcePoint" />
            <mxPoint x="260" y="52" as="targetPoint" />
          </mxGeometry>
        </mxCell>
        <mxCell id="1Ba7Y8OGBQMB3d605TR8-29" value="&lt;font style=&quot;font-size: 14px;&quot;&gt;Provide Input&lt;/font&gt;" style="text;html=1;align=center;verticalAlign=middle;whiteSpace=wrap;rounded=0;" vertex="1" parent="1">
          <mxGeometry x="392.5" y="57" width="90" height="30" as="geometry" />
        </mxCell>
        <mxCell id="1Ba7Y8OGBQMB3d605TR8-30" value="&lt;font style=&quot;font-size: 14px;&quot;&gt;Select Voice/Language&lt;/font&gt;" style="text;html=1;align=center;verticalAlign=middle;whiteSpace=wrap;rounded=0;" vertex="1" parent="1">
          <mxGeometry x="407.5" y="132" width="60" height="30" as="geometry" />
        </mxCell>
        <mxCell id="1Ba7Y8OGBQMB3d605TR8-31" value="&lt;font style=&quot;font-size: 14px;&quot;&gt;Choose Speed&lt;/font&gt;" style="text;html=1;align=center;verticalAlign=middle;whiteSpace=wrap;rounded=0;" vertex="1" parent="1">
          <mxGeometry x="382.5" y="217" width="110" height="30" as="geometry" />
        </mxCell>
        <mxCell id="1Ba7Y8OGBQMB3d605TR8-32" value="&lt;font style=&quot;font-size: 14px;&quot;&gt;Choose Pitch&lt;/font&gt;" style="text;html=1;align=center;verticalAlign=middle;whiteSpace=wrap;rounded=0;" vertex="1" parent="1">
          <mxGeometry x="382.5" y="287" width="110" height="30" as="geometry" />
        </mxCell>
        <mxCell id="1Ba7Y8OGBQMB3d605TR8-34" value="&lt;font style=&quot;font-size: 14px;&quot;&gt;Choose Volume&lt;/font&gt;" style="text;html=1;align=center;verticalAlign=middle;whiteSpace=wrap;rounded=0;" vertex="1" parent="1">
          <mxGeometry x="382.5" y="357" width="110" height="30" as="geometry" />
        </mxCell>
        <mxCell id="1Ba7Y8OGBQMB3d605TR8-35" value="&lt;font style=&quot;font-size: 14px;&quot;&gt;Play&lt;/font&gt;" style="text;html=1;align=center;verticalAlign=middle;whiteSpace=wrap;rounded=0;" vertex="1" parent="1">
          <mxGeometry x="407.5" y="427" width="65" height="30" as="geometry" />
        </mxCell>
        <mxCell id="1Ba7Y8OGBQMB3d605TR8-37" value="&lt;font style=&quot;font-size: 14px;&quot;&gt;&lt;font style=&quot;&quot;&gt;Down&lt;/font&gt;&lt;font style=&quot;&quot;&gt;load&lt;/font&gt;&lt;/font&gt;" style="text;html=1;align=center;verticalAlign=middle;whiteSpace=wrap;rounded=0;" vertex="1" parent="1">
          <mxGeometry x="385" y="497" width="100" height="30" as="geometry" />
        </mxCell>
        <mxCell id="1Ba7Y8OGBQMB3d605TR8-44" value="" style="endArrow=classic;html=1;rounded=0;exitX=0.5;exitY=1;exitDx=0;exitDy=0;entryX=0.5;entryY=0;entryDx=0;entryDy=0;" edge="1" parent="1" source="1Ba7Y8OGBQMB3d605TR8-2" target="1Ba7Y8OGBQMB3d605TR8-3">
          <mxGeometry width="50" height="50" relative="1" as="geometry">
            <mxPoint x="610" y="302" as="sourcePoint" />
            <mxPoint x="660" y="252" as="targetPoint" />
          </mxGeometry>
        </mxCell>
        <mxCell id="1Ba7Y8OGBQMB3d605TR8-45" value="" style="endArrow=classic;html=1;rounded=0;exitX=0.5;exitY=1;exitDx=0;exitDy=0;entryX=0.5;entryY=0;entryDx=0;entryDy=0;" edge="1" parent="1" source="1Ba7Y8OGBQMB3d605TR8-3" target="1Ba7Y8OGBQMB3d605TR8-4">
          <mxGeometry width="50" height="50" relative="1" as="geometry">
            <mxPoint x="610" y="302" as="sourcePoint" />
            <mxPoint x="660" y="252" as="targetPoint" />
          </mxGeometry>
        </mxCell>
        <mxCell id="1Ba7Y8OGBQMB3d605TR8-49" value="" style="endArrow=classic;html=1;rounded=0;exitX=0.5;exitY=1;exitDx=0;exitDy=0;entryX=0.5;entryY=0;entryDx=0;entryDy=0;" edge="1" parent="1" source="1Ba7Y8OGBQMB3d605TR8-4" target="1Ba7Y8OGBQMB3d605TR8-5">
          <mxGeometry width="50" height="50" relative="1" as="geometry">
            <mxPoint x="610" y="302" as="sourcePoint" />
            <mxPoint x="660" y="252" as="targetPoint" />
          </mxGeometry>
        </mxCell>
        <mxCell id="1Ba7Y8OGBQMB3d605TR8-50" value="" style="endArrow=classic;html=1;rounded=0;exitX=0.5;exitY=1;exitDx=0;exitDy=0;entryX=0.5;entryY=0;entryDx=0;entryDy=0;" edge="1" parent="1" source="1Ba7Y8OGBQMB3d605TR8-5" target="1Ba7Y8OGBQMB3d605TR8-34">
          <mxGeometry width="50" height="50" relative="1" as="geometry">
            <mxPoint x="610" y="302" as="sourcePoint" />
            <mxPoint x="660" y="252" as="targetPoint" />
          </mxGeometry>
        </mxCell>
        <mxCell id="1Ba7Y8OGBQMB3d605TR8-51" value="" style="endArrow=classic;html=1;rounded=0;exitX=0.5;exitY=1;exitDx=0;exitDy=0;entryX=0.5;entryY=0;entryDx=0;entryDy=0;" edge="1" parent="1" source="1Ba7Y8OGBQMB3d605TR8-8" target="1Ba7Y8OGBQMB3d605TR8-6">
          <mxGeometry width="50" height="50" relative="1" as="geometry">
            <mxPoint x="610" y="302" as="sourcePoint" />
            <mxPoint x="660" y="252" as="targetPoint" />
          </mxGeometry>
        </mxCell>
        <mxCell id="1Ba7Y8OGBQMB3d605TR8-56" value="" style="endArrow=classic;html=1;rounded=0;exitX=0.5;exitY=1;exitDx=0;exitDy=0;entryX=0.5;entryY=0;entryDx=0;entryDy=0;" edge="1" parent="1" source="1Ba7Y8OGBQMB3d605TR8-6" target="1Ba7Y8OGBQMB3d605TR8-37">
          <mxGeometry width="50" height="50" relative="1" as="geometry">
            <mxPoint x="630" y="332" as="sourcePoint" />
            <mxPoint x="680" y="282" as="targetPoint" />
          </mxGeometry>
        </mxCell>
      </root>
    </mxGraphModel>
  </diagram>
</mxfile>
